<svg width="103" height="103" viewBox="0 0 103 103" fill="none" xmlns="http://www.w3.org/2000/svg">
<path d="M51.3927 93.2365L45.3844 87.8719C37.7309 80.7906 31.3828 74.6929 26.3401 69.5786C21.2974 64.4644 17.274 59.833 14.2698 55.6844C11.2656 51.5358 9.17344 47.7627 7.99323 44.3651C6.81302 40.9675 6.22292 37.5521 6.22292 34.1187C6.22292 27.0375 8.60121 21.0828 13.3578 16.2547C18.1144 11.4266 23.9976 9.0125 31.0073 9.0125C35.0128 9.0125 38.7502 9.88871 42.2193 11.6411C45.6884 13.3936 48.7462 15.9507 51.3927 19.3125C54.3969 15.8076 57.562 13.2148 60.888 11.5339C64.2141 9.85295 67.8441 9.0125 71.7781 9.0125C78.8594 9.0125 84.7962 11.4266 89.5885 16.2547C94.3809 21.0828 96.7771 27.0375 96.7771 34.1187C96.7771 37.5521 96.1691 40.9497 94.9531 44.3115C93.7371 47.6733 91.645 51.4285 88.6766 55.5771C85.7082 59.7257 81.7026 64.375 76.6599 69.525C71.6172 74.675 65.2333 80.7906 57.5083 87.8719L51.3927 93.2365Z" fill="white"/>
</svg>
